<svg width="185" height="375" viewBox="0 0 185 375" fill="none" xmlns="http://www.w3.org/2000/svg">
<path d="M66.5667 172.149C79.9189 167.843 100.656 165.563 128.965 179.104L157.156 192.59C157.17 234.263 157.167 282.306 157.119 316.697C155.172 319.176 151.424 323.181 144.823 327.703C134.25 334.946 117.06 342.961 90.8401 347.201C77.8205 349.307 68.6988 347.025 61.8479 343.104C54.6203 338.968 47.8932 331.814 42.1711 321.225C30.4174 299.473 25.6503 268.148 27.5774 240.431C30.4016 199.812 47.3221 178.357 66.5667 172.149ZM89.0657 27C111.354 27.0001 125.881 35.9836 135.747 46.3369C139.228 49.989 142.107 53.8113 144.448 57.4473C126.431 40.8698 105.66 38.1122 90.6643 37.9404L89.0657 37.9307C81.81 37.9307 71.9741 39.9683 62.6389 43.0664C56.713 45.0331 50.0205 47.7436 43.2463 51.3945C43.7671 46.7902 45.315 42.1798 48.5334 38.5537C52.0889 34.5481 61.8972 27 89.0657 27Z" stroke="url(#paint0_linear_10_6)" stroke-width="54"/>
<defs>
<linearGradient id="paint0_linear_10_6" x1="-42.1371" y1="214.816" x2="184.582" y2="206.51" gradientUnits="userSpaceOnUse">
<stop stop-color="#0077C8" stop-opacity="0.88"/>
<stop offset="0.348324" stop-color="#3E52C4" stop-opacity="0.95"/>
<stop offset="1" stop-color="#E6007E" stop-opacity="0.8"/>
</linearGradient>
</defs>
</svg>
